<svg xmlns="http://www.w3.org/2000/svg" width="600" height="287.669" viewBox="0 0 600 287.669"><path d="M0 240.235h51.392l1.86-8.274H11.685l5.378-25.539h38.363l1.654-8.274H18.817l4.963-23.476h41.055l1.654-8.274H15.614L0 240.235zm132.793-30.159c-2.857 13.68-6.328 22.76-22.246 22.76-14.089 0-20.514-7.04-17.249-21.121l9.593-45.317h-9.694l-9.084 42.865c-4.184 20.312 5.102 31.738 26.434 31.738 12.345 0 23.472-4.9 28.368-16.941 1.226-2.86 2.448-8.368 3.674-13.984l9.084-43.678h-9.695l-9.185 43.678zm80.484-43.678h-28.435l-15.614 73.833h9.823l6.616-31.536h21.818c4.243 0 14.167-1.864 11.065 15.72-1.444 7.542-1.133 13.13-.206 15.816h10.24c-3.001-5.892-.518-12.2-.106-18.922.724-7.445-1.136-14.062-7.546-16.031v-.202c9.823-1.448 16.65-10.03 16.65-19.853 0-14.583-11.793-18.825-24.305-18.825zm-3.721 34.023h-22.13l5.48-25.749h20.37c7.344 0 14.478 1.97 14.478 11.166 0 5.281-2.689 14.583-18.198 14.583zm44.667 39.814h51.393l1.86-8.274h-41.57l5.38-25.539h38.362l1.654-8.274H273.04l4.966-23.476h41.051l1.655-8.274h-50.875l-15.615 73.837zm122.01-65.506c10.313 0 17.556 5.457 17.556 16.568h9.418c0-16.37-11.703-24.503-26.974-24.503-24.2 0-38.877 20.237-38.877 43.145 0 19.537 11.007 31.038 30.35 31.038 17.459 0 27.768-9.718 31.34-25.585h-9.425c-3.075 11.01-10.314 17.653-21.915 17.653-14.182 0-20.927-9.422-20.927-23.106 0-17.058 9.718-35.21 29.454-35.21zm85.312-7.932c-24.207 0-38.884 20.238-38.884 43.145 0 19.534 11.015 31.038 30.35 31.038 23.608 0 38.082-20.627 38.082-42.846 0-17.552-11.205-31.337-29.548-31.337zm-8.535 66.247c-14.182 0-20.919-9.418-20.919-23.102 0-17.062 9.71-35.214 29.454-35.214 13.089 0 20.125 10.314 20.125 23.406 0 16.864-9.912 34.91-28.66 34.91zm133.345-66.248l-36.506 63.496h-.202l-9.827-63.496H526.17l-15.513 73.837h9.406L532.997 176h.203l9.616 64.633h9.411L589.87 176h.203l-15.093 64.633h9.407L600 166.796h-13.645z" fill="#010101"/><path d="M8.754 265.905c3.079 0 4.749 1.012 4.772 4.168h1.716c.203-4.168-2.751-5.636-6.414-5.636-3.207 0-6.39 1.542-6.39 5.157 0 2.324 1.467 3.581 3.561 4.192l1.767.53c1.997.579 4.472 1.034 4.472 3.584 0 2.705-2.78 3.864-5.126 3.864-3.285 0-5.378-1.339-5.203-4.845H.192c-.202 4.363 2.752 6.313 6.792 6.313 5.86 0 6.97-3.791 6.97-5.562 0-3.028-2.374-3.838-4.85-4.596l-1.918-.576c-1.514-.46-3.028-1.063-3.028-2.985 0-2.573 2.37-3.608 4.596-3.608zm37.65 3.532c-4.646 0-7.273 4.094-7.273 8.364 0 3.253 1.845 5.429 5.203 5.429 4.822 0 7.224-4.297 7.224-8.687 0-3.21-2.122-5.106-5.153-5.106zm-1.766 12.45c-2.655 0-3.915-1.712-3.915-4.242 0-3.051 1.918-6.869 5.405-6.869 2.55 0 3.838 1.67 3.838 4.094 0 3.028-1.845 7.017-5.328 7.017zm43.526-12.448c-2.3 0-3.635 1.008-4.748 2.728h-.05l.505-2.347h-1.44l-3.837 17.849h1.588l1.592-7.422h.05c.354 2.12 2.122 2.985 4.168 2.985 4.371 0 7.123-4.472 7.123-8.465 0-3.184-1.615-5.328-4.95-5.328zm-2.199 12.446c-2.323 0-3.635-1.483-3.635-3.76 0-3.23 2.02-7.347 5.682-7.347 2.402 0 3.51 1.67 3.51 3.888 0 3.183-1.894 7.22-5.557 7.22zm45.853-12.446c-1.946 0-3.662 1.215-4.573 2.756h-.05l1.591-7.375h-1.592l-3.888 18.027h1.588l1.44-6.686c.709-3.312 2.806-5.383 5.103-5.383 1.416 0 2.728.635 2.728 2.347 0 .432-.074.915-.175 1.316l-1.822 8.406h1.592l1.794-8.356c.125-.607.203-1.136.203-1.537 0-2.507-1.666-3.515-3.94-3.515zm34.131 13.408h1.588l2.806-13.026h-1.592l-2.802 13.026zm3.332-15.478h1.591l.557-2.55h-1.592l-.556 2.55zm47.318 4.975c0-2.304-2.756-2.908-4.523-2.908-2.802 0-5.075 1.316-5.507 4.27h1.592c.33-2.172 2.07-2.93 4.09-2.93 1.215 0 2.756.334 2.756 1.871 0 1.72-.533 2.296-1.569 2.55-1.008.252-2.475.128-4.14.377-2.324.405-4.52 1.288-4.52 4.044 0 2.553 1.791 3.611 4.165 3.611 1.822 0 3.612-.887 4.523-2.405l.05.058c-.027.226-.05.475-.05.705.023.86.506 1.417 1.389 1.417.428 0 .957-.051 1.311-.129l.23-1.269c-.23.035-.405.059-.634.059-.378 0-.833-.078-.833-.53 0-.782.28-1.467.86-4.398.253-1.163.81-3.133.81-4.393zm-2.655 5.732c-.506 2.277-2.12 3.81-4.67 3.81-1.518 0-2.907-.677-2.907-2.343 0-2.732 3.21-2.829 5.153-2.984.81-.051 2.374-.098 2.88-.736l.05.058-.506 2.195zm59.662-13.259l-11.033 18.031h1.918l3.332-5.604h8.235l.907 5.604h1.794l-3.28-18.031h-1.873zm-4.923 10.96l5.53-9.497h.05l1.542 9.497h-7.122zm47.596-6.338c-1.946 0-3.666 1.214-4.643 2.755h-.058l.46-2.374h-1.464l-2.806 13.03h1.592l1.435-6.69c.709-3.312 2.807-5.382 5.107-5.382 1.413 0 2.724.634 2.724 2.347 0 .432-.074.914-.171 1.315l-1.822 8.41h1.592l1.794-8.36c.125-.606.199-1.136.199-1.537 0-2.506-1.666-3.514-3.939-3.514zm38.026-3.557h-1.591l-.841 3.938h-2.347l-.303 1.34h2.35l-1.794 8.635c-.124.58-.175 1.063-.175 1.34 0 1.564 1.21 1.867 2.401 1.867.53 0 1.086-.05 1.615-.1l.277-1.39c-.627.097-1.238.152-1.868.152-.604 0-.833-.456-.833-.911 0-.401.05-.627.175-1.242l1.79-8.352h2.654l.253-1.339h-2.603l.84-3.938zm34.098 1.487h1.592l.557-2.55h-1.592l-.557 2.55zm-3.327 15.478h1.588l2.802-13.026h-1.592l-2.798 13.026zm44.052-13.408c-2.3 0-3.639 1.008-4.748 2.728h-.05l.505-2.347h-1.444l-3.833 17.849h1.588l1.592-7.422h.05c.35 2.12 2.121 2.985 4.168 2.985 4.371 0 7.123-4.472 7.123-8.465 0-3.184-1.616-5.328-4.95-5.328zm-2.199 12.446c-2.323 0-3.635-1.483-3.635-3.76 0-3.23 2.024-7.347 5.686-7.347 2.398 0 3.507 1.67 3.507 3.888 0 3.183-1.892 7.22-5.558 7.22zm43.43-12.448c-4.65 0-7.273 4.094-7.273 8.364 0 3.253 1.84 5.429 5.203 5.429 4.826 0 7.227-4.297 7.227-8.687 0-3.21-2.12-5.106-5.156-5.106zm-1.766 12.45c-2.65 0-3.912-1.712-3.912-4.242 0-3.051 1.92-6.869 5.402-6.869 2.553 0 3.842 1.67 3.842 4.094 0 3.028-1.845 7.017-5.332 7.017zm35.932.96h1.588l3.892-18.027h-1.592l-3.888 18.027zm34.489 0h1.588l2.806-13.026h-1.592l-2.802 13.026zm3.331-15.478h1.592l.557-2.55h-1.592l-.557 2.55zm37.072 8.03c-1.468-.58-2.756-1.19-2.756-2.397 0-1.794 1.845-2.226 3.238-2.226 1.79 0 3.18.864 3.051 2.856h1.592c.059-3.004-1.914-4.195-4.643-4.195-2.098 0-4.83 1.035-4.83 3.565 0 2.145 1.748 2.927 3.495 3.608 1.713.658 3.507 1.187 3.507 2.876 0 1.673-1.868 2.401-3.289 2.401-1.84 0-3.713-.75-3.685-3.28h-1.592c-.148 3.253 2.405 4.623 4.904 4.623 2.471 0 5.254-1.059 5.254-3.997 0-2.398-2.448-3.125-4.246-3.833z" fill="#595a5c"/><path d="M178.68 0l-4.184 23.55h188.231L366.92 0H178.68zm-12.661 70.931h188.227l4.172-23.55H170.203l-4.184 23.55zm-9.503 46.914h188.216l4.188-23.55H160.696l-4.18 23.55z" fill="#bcbec0"/><path d="M245.495 23.684l-4.192 23.553h188.228l4.183-23.553h-188.22zm-13.697 70.703h188.231l4.18-23.55H235.982l-4.184 23.55zm-7.602 46.834h188.228l4.18-23.561H228.376l-4.18 23.561z" fill="#2daae0"/></svg>